<?xml version="1.0" standalone="no"?>
<!DOCTYPE svg PUBLIC "-//W3C//DTD SVG 20010904//EN"
 "http://www.w3.org/TR/2001/REC-SVG-20010904/DTD/svg10.dtd">
<svg version="1.0" xmlns="http://www.w3.org/2000/svg"
 width="128.000000pt" height="128.000000pt" viewBox="0 0 128.000000 128.000000"
 preserveAspectRatio="xMidYMid meet">
<metadata>
Created by potrace 1.11, written by Peter Selinger 2001-2013
</metadata>
<g transform="translate(0.000000,128.000000) scale(0.100000,-0.100000)"
fill="#000000" stroke="none">
<path d="M584 1258 c-4 -6 -15 -8 -25 -5 -11 3 -19 0 -19 -6 0 -6 -3 -8 -6 -4
-9 8 -33 -16 -27 -27 3 -5 0 -6 -8 -4 -8 3 -19 -6 -27 -21 -7 -14 -10 -18 -7
-8 3 10 1 15 -5 12 -6 -3 -10 -13 -10 -21 0 -8 -4 -13 -9 -10 -5 4 -12 -7 -16
-23 -3 -16 -13 -32 -20 -35 -8 -3 -12 -12 -9 -19 3 -8 -2 -22 -11 -31 -11 -10
-12 -16 -4 -16 6 0 0 -9 -15 -21 -14 -11 -23 -25 -20 -30 3 -6 -3 -18 -13 -27
-10 -9 -19 -26 -18 -37 0 -11 -14 -35 -32 -52 -18 -18 -30 -33 -27 -33 4 0 -1
-11 -10 -24 -10 -16 -16 -45 -15 -83 0 -32 1 -114 1 -183 -1 -111 3 -185 8
-185 3 0 8 -40 14 -111 3 -40 10 -83 16 -98 5 -14 7 -26 4 -26 -4 0 -1 -7 6
-15 7 -8 9 -15 5 -15 -15 0 55 -61 83 -72 29 -12 127 -12 146 -1 6 4 16 8 21
9 21 4 158 88 182 111 13 14 42 48 64 75 21 28 61 66 88 86 42 31 91 94 80
104 -2 2 11 24 29 51 35 50 48 87 30 87 -7 0 -6 6 2 15 7 8 9 15 5 15 -4 0 -2
7 5 15 7 8 9 15 4 15 -5 0 -1 7 9 14 10 8 17 18 16 22 -4 24 2 44 12 38 7 -4
7 1 -1 16 -7 12 -8 20 -3 17 5 -3 9 27 9 67 0 39 4 81 8 92 10 22 14 124 7
139 -3 6 -7 19 -8 30 -2 11 -8 22 -13 23 -6 2 -8 8 -4 13 3 5 0 9 -6 9 -6 0
-8 5 -5 10 3 6 2 10 -3 10 -8 0 -23 11 -69 50 -7 5 -17 10 -23 10 -6 0 -8 4
-5 10 3 5 0 8 -7 5 -7 -3 -31 12 -52 32 -22 21 -36 32 -31 24 6 -11 5 -12 -6
-5 -8 5 -34 10 -59 11 -25 1 -56 4 -70 7 -44 11 -130 13 -136 4z"/>
</g>
</svg>
